<svg width="24" height="24" xmlns="http://www.w3.org/2000/svg" xmlns:xlink="http://www.w3.org/1999/xlink">
  <defs>
    <path d="M10 0c5.523 0 10 4.477 10 10s-4.477 10-10 10S0 15.523 0 10 4.477 0 10 0zm0 1a9 9 0 100 18 9 9 0 000-18zm2.7 4v2.022c-.04.002-.082.006-.123.006l-1.398.001c-.284 0-.464.145-.483.432-.019.299-.004.6-.004.914H12.7v2.032h-2.012V15H8.78v-4.592h-.749l-.636.001c-.06 0-.096-.007-.096-.082.003-.628.002-1.256.002-1.884 0-.016.003-.031.007-.06h1.48v-.147c.013-.365-.01-.736.045-1.095a2.561 2.561 0 011.078-1.76c.362-.258.766-.382 1.21-.381h1.58z" id="a"/>
  </defs>
  <g transform="translate(2 2)" fill="none" fill-rule="evenodd">
    <mask id="b" fill="#fff">
      <use xlink:href="#a"/>
    </mask>
    <use fill="#000" xlink:href="#a"/>
    <g mask="url(#b)" fill="#000">
      <path d="M-115-110h250v240h-250z"/>
    </g>
  </g>
</svg>
