<svg width="24" height="24" xmlns="http://www.w3.org/2000/svg" xmlns:xlink="http://www.w3.org/1999/xlink">
  <defs>
    <path d="M10 0c5.523 0 10 4.477 10 10s-4.477 10-10 10S0 15.523 0 10 4.477 0 10 0zm0 1a9 9 0 100 18 9 9 0 000-18zm2 4a3 3 0 013 3v4a3 3 0 01-3 3H8a3 3 0 01-3-3V8a3 3 0 013-3h4zm0 1H8a2 2 0 00-1.995 1.85L6 8v4a2 2 0 001.85 1.995L8 14h4a2 2 0 001.995-1.85L14 12V8a2 2 0 00-2-2zm-1.966 1.617a2.43 2.43 0 012.4 2.443 2.418 2.418 0 01-2.419 2.39c-1.352 0-2.415-1.071-2.419-2.43-.004-1.32 1.1-2.413 2.438-2.403zm-.014.85c-.86-.002-1.57.7-1.575 1.56a1.577 1.577 0 001.569 1.576c.86 0 1.568-.706 1.57-1.565a1.577 1.577 0 00-1.564-1.57zm2.61-1.593c.321 0 .563.244.563.567-.001.31-.252.564-.56.566a.578.578 0 01-.575-.567.567.567 0 01.571-.566z" id="a"/>
  </defs>
  <g transform="translate(2 2)" fill="none" fill-rule="evenodd">
    <mask id="b" fill="#fff">
      <use xlink:href="#a"/>
    </mask>
    <use fill="#000" xlink:href="#a"/>
    <g mask="url(#b)" fill="#000">
      <path d="M-115-110h250v240h-250z"/>
    </g>
  </g>
</svg>
