<svg width="24" height="24" xmlns="http://www.w3.org/2000/svg" xmlns:xlink="http://www.w3.org/1999/xlink">
  <defs>
    <path d="M12.617 6.523a1.859 1.859 0 00-.313.085c-.124.043-.26.106-.406.189a2.135 2.135 0 00-.67.593c-.071.099-.13.188-.173.265a2.484 2.484 0 00-.237.695 2.328 2.328 0 00-.034.414c0 .149.006.265.02.348l.019.125.003.015.002.014-.069-.002a4.842 4.842 0 01-.254-.022 7.537 7.537 0 01-.552-.09 6.116 6.116 0 01-.518-.115 8.38 8.38 0 01-.528-.189 5.77 5.77 0 01-.704-.323 7.006 7.006 0 01-1.031-.688 2.004 2.004 0 01-.196-.176.144.144 0 00-.049-.046 1.851 1.851 0 01-.2-.19 8.797 8.797 0 01-.313-.334l-.132-.15-.002-.003-.003-.002-.005-.01-.005-.01-.003-.002-.001-.003-.002-.003-.003-.002-.003-.002-.002-.003-.002-.003-.003-.002-.003.002-.002.003-.002.003-.003.002-.005.015-.005.015-.083.19a2.397 2.397 0 00-.186.662 2.46 2.46 0 00.035.707c.026.13.064.258.114.385.05.128.1.234.145.317.045.082.097.16.156.234.059.073.117.142.176.209a1.293 1.293 0 00.252.226l.002.003.01.005.01.005.002.003.003.002.003.002.002.003.01.005.01.005.001.003.003.002.003.002.002.003.002.003.003.002.003.002.002.003H6.82l-.044-.005a4.247 4.247 0 01-.27-.055 1.886 1.886 0 01-.375-.12l-.152-.07-.01-.004-.01-.005-.01-.005-.01-.005-.009-.003-.01-.002.018.209a2.354 2.354 0 00.232.841c.071.15.153.281.244.394a2.8 2.8 0 00.251.277c.077.07.158.136.243.196.084.06.198.121.342.184.143.063.231.1.264.11l.068.02.02.004.02.005.019.005.02.005.019.005-.002.003-.003.002-.003.002-.002.003-.024.005-.025.005-.02.005c-.012.004-.048.01-.107.02-.058.01-.164.017-.317.02-.154.003-.266 0-.338-.01l-.107-.015-.015-.003-.015-.002.002.01.003.01.005.015.005.015.081.181a2.01 2.01 0 00.375.594c.08.087.146.155.196.203a2.582 2.582 0 00.937.49 1.445 1.445 0 00.38.056l.08.005-.003.003-.003.002-.003.01-.002.01-.01.002-.01.003-.001.003-.003.002-.003.002-.002.003-.002.002-.003.002-.003.002-.002.003-.225.155c-.15.103-.261.173-.334.21a7.94 7.94 0 01-.371.176 5 5 0 01-1.117.32 4.287 4.287 0 01-.866.046 5.81 5.81 0 01-.24-.015l-.043-.005-.01-.003-.01-.002v.02h.001l.003.002.002.003.002.003.003.002.003.002.002.003.01.005.01.005.001.003.003.002.003.002.002.003.088.056c.059.037.112.069.159.094l.352.183c.188.096.414.192.678.287.265.095.464.16.597.193.134.034.318.068.553.102.235.034.37.052.406.056.036.003.082.007.137.01l.084.005v.005h.636v.009l.346-.035a7.87 7.87 0 00.62-.085c.183-.033.372-.08.567-.14.195-.06.381-.125.557-.195.176-.07.339-.145.49-.227.152-.082.281-.154.389-.217a4.18 4.18 0 00.353-.237c.13-.095.25-.19.362-.286.112-.094.176-.149.191-.163.014-.016.1-.102.254-.26a5.917 5.917 0 001.003-1.357 6.777 6.777 0 00.61-1.498c.075-.273.13-.518.166-.735.036-.216.06-.417.074-.604.013-.186.02-.354.022-.501a.477.477 0 01.186-.376c.121-.101.246-.217.373-.347a2.841 2.841 0 00.234-.252c.007-.002.05-.058.132-.17l.124-.17.003-.002.005-.01.005-.01.003-.002.002-.003.002-.003.003-.002.002-.002.002-.003.002-.003.003-.002.003-.002.002-.003.005-.003.005-.002v-.02l-.02.002-.02.003-.009.005-.01.005-.01.005-.01.005-.014.005-.03.01-.263.09c-.166.056-.34.105-.522.145l-.274.06h-.049l.002-.003.003-.002.003-.002.002-.003.002-.003.003-.002.003-.002.002-.003.01-.005.01-.005.001-.003.003-.002.003-.002.002-.003.01-.005.01-.005.049-.033a.422.422 0 00.083-.07 2.28 2.28 0 01.14-.13 2.504 2.504 0 00.456-.626c.058-.117.089-.184.092-.2a.352.352 0 01.01-.04l.005-.015.005-.01.005-.01.004-.015.005-.015.003-.015.002-.015-.01.002-.01.003-.001.003-.003.002-.003.002-.002.003-.01.005-.01.005-.01.005-.01.005-.001.003a3.548 3.548 0 01-.049.03c-.031.018-.118.06-.262.127a5.446 5.446 0 01-.434.18 3.685 3.685 0 01-.41.124c-.127.03-.22.014-.28-.048a1.588 1.588 0 00-.206-.173 2.773 2.773 0 00-.55-.303c-.1-.04-.213-.072-.337-.097l-.185-.038h-.505V6.5c0 .002-.043.01-.127.023z" id="a"/>
  </defs>
  <g transform="translate(1.5 1.5)" fill="none" fill-rule="evenodd">
    <path d="M10.5.5c5.523 0 10 4.477 10 10s-4.477 10-10 10-10-4.477-10-10 4.477-10 10-10zm0 1a9 9 0 100 18 9 9 0 000-18z" fill="#000"/>
    <mask id="b" fill="#fff">
      <use xlink:href="#a"/>
    </mask>
    <use fill="#000" xlink:href="#a"/>
    <g mask="url(#b)" fill="#000">
      <path d="M-114.5-109.5h250v240h-250z"/>
    </g>
  </g>
</svg>
