<svg width="24" height="24" xmlns="http://www.w3.org/2000/svg" xmlns:xlink="http://www.w3.org/1999/xlink">
  <defs>
    <path d="M10 20c5.523 0 10-4.477 10-10S15.523 0 10 0 0 4.477 0 10s4.477 10 10 10zm0-19a9 9 0 110 18 9 9 0 010-18zm0 5.482l-.284.005c-2.038.037-3.141.075-3.31.113-.267.06-1.24.129-1.32 1.73-.053 1.067-.071 1.624-.055 1.67l-.003.016c-.01.107.009.658.059 1.654.08 1.601 1.052 1.67 1.318 1.73.17.038 1.273.076 3.311.113l.284.005.284-.005c2.038-.037 3.141-.075 3.31-.113.267-.06 1.24-.129 1.32-1.73.05-.996.069-1.547.058-1.654L14.969 10c.016-.046-.002-.603-.056-1.67-.08-1.601-1.052-1.67-1.318-1.73-.177-.04-1.376-.08-3.595-.118zm-1 1.99L11.548 10 9 11.471v-3z" id="a"/>
  </defs>
  <use fill="#000" xlink:href="#a" transform="translate(2 2)" fill-rule="evenodd"/>
</svg>
